<mxfile host="app.diagrams.net" modified="2023-08-23T14:03:34.937Z" agent="Mozilla/5.0 (Windows NT 10.0; Win64; x64) AppleWebKit/537.36 (KHTML, like Gecko) Chrome/116.0.0.0 Safari/537.36" version="21.6.6" etag="ckFWA1Fz7URWoK5xnvJ_" type="github">
  <diagram name="第 1 页" id="whe6keLf8QKhJT8p5w1d">
    <mxGraphModel>
      <root>
        <mxCell id="0" />
        <mxCell id="1" parent="0" />
      </root>
    </mxGraphModel>
  </diagram>
</mxfile>
